<svg width="24" height="24" viewBox="0 0 24 24" fill="none" xmlns="http://www.w3.org/2000/svg">
<g opacity="0.54" clip-path="url(#clip0)">
<path d="M8.6817 21.835C9.24508 23.1086 10.5201 24 12 24C13.4799 24 14.7549 23.1086 15.3183 21.835H8.6817Z" fill="#1F2937"/>
<path d="M11.9998 2.29297C12.9764 2.29297 13.9141 2.46528 14.7843 2.78076V2.67356C14.7843 1.19935 13.585 0 12.1108 0H11.8893C10.4151 0 9.2157 1.19935 9.2157 2.67356V2.77939C10.0854 2.46486 11.0229 2.29297 11.9998 2.29297Z" fill="#1F2937"/>
<path d="M20.7881 20.4264H3.21199C2.87947 20.4264 2.57489 20.2021 2.50573 19.8768C2.43728 19.5548 2.58405 19.2369 2.88182 19.0994C2.95249 19.0535 3.48436 18.6816 4.01685 17.5564C4.99482 15.49 5.2001 12.5792 5.2001 10.5012C5.2001 6.7518 8.25045 3.70154 11.9998 3.70154C15.7403 3.70154 18.785 6.73711 18.7994 10.4742C18.7998 10.4832 18.8 10.4922 18.8 10.5012C18.8 12.5792 19.0052 15.49 19.9832 17.5564C20.5157 18.6816 21.0475 19.0536 21.1182 19.0994C21.416 19.2369 21.5628 19.5547 21.4943 19.8768C21.4252 20.2021 21.1206 20.4264 20.7881 20.4264ZM21.1261 19.1043H21.1266H21.1261Z" fill="#1F2937"/>
</g>
<defs>
<clipPath id="clip0">
<rect width="24" height="24" fill="white"/>
</clipPath>
</defs>
</svg>
