<svg width="24" height="24" viewBox="0 0 24 24" fill="none" xmlns="http://www.w3.org/2000/svg">
<g clip-path="url(#clip0)">
<path d="M8.68167 21.835C9.24505 23.1086 10.52 24 12 24C13.4799 24 14.7549 23.1086 15.3183 21.835H8.68167Z" fill="#1F2937"/>
<path d="M11.9998 2.29297C12.9764 2.29297 13.9141 2.46528 14.7843 2.78076V2.67356C14.7843 1.19935 13.585 0 12.1108 0H11.8892C10.415 0 9.21567 1.19935 9.21567 2.67356V2.77939C10.0854 2.46486 11.0229 2.29297 11.9998 2.29297Z" fill="#1F2937"/>
<path d="M20.788 20.4264H3.21196C2.87944 20.4264 2.57486 20.2021 2.5057 19.8768C2.43725 19.5548 2.58402 19.2369 2.88179 19.0994C2.95246 19.0535 3.48433 18.6816 4.01682 17.5564C4.99479 15.49 5.20007 12.5792 5.20007 10.5012C5.20007 6.7518 8.25042 3.70154 11.9998 3.70154C15.7402 3.70154 18.7849 6.73711 18.7994 10.4742C18.7997 10.4832 18.7999 10.4922 18.7999 10.5012C18.7999 12.5792 19.0052 15.49 19.9832 17.5564C20.5157 18.6816 21.0475 19.0536 21.1182 19.0994C21.416 19.2369 21.5628 19.5547 21.4943 19.8768C21.4251 20.2021 21.1206 20.4264 20.788 20.4264ZM21.1261 19.1043H21.1266H21.1261Z" fill="#1F2937"/>
</g>
<defs>
<clipPath id="clip0">
<rect width="24" height="24" fill="white"/>
</clipPath>
</defs>
</svg>
