<svg width="20" height="18" viewBox="0 0 20 18" fill="none" xmlns="http://www.w3.org/2000/svg">
<path fill-rule="evenodd" clip-rule="evenodd" d="M5 2H2C1.46957 2 0.960846 2.21071 0.585785 2.58579C0.210724 2.96086 0 3.46957 0 4V16C0 16.5304 0.210724 17.0391 0.585785 17.4142C0.960846 17.7893 1.46957 18 2 18H18C18.5304 18 19.0392 17.7893 19.4142 17.4142C19.7893 17.0391 20 16.5304 20 16V4C20 3.46957 19.7893 2.96086 19.4142 2.58579C19.0392 2.21071 18.5304 2 18 2H15L13 0H7L5 2ZM6.46448 6.46447C7.40216 5.52678 8.67392 5 10 5C11.3261 5 12.5978 5.52678 13.5355 6.46447C14.4732 7.40215 15 8.67392 15 10C15 11.3261 14.4732 12.5979 13.5355 13.5355C12.5978 14.4732 11.3261 15 10 15C8.67392 15 7.40216 14.4732 6.46448 13.5355C5.52679 12.5979 5 11.3261 5 10C5 8.67392 5.52679 7.40215 6.46448 6.46447ZM12.1213 7.87868C11.5587 7.31607 10.7957 7 10 7C9.20435 7 8.44128 7.31607 7.87869 7.87868C7.31607 8.44129 7 9.20435 7 10C7 10.7957 7.31607 11.5587 7.87869 12.1213C8.44128 12.6839 9.20435 13 10 13C10.7957 13 11.5587 12.6839 12.1213 12.1213C12.6839 11.5587 13 10.7957 13 10C13 9.20435 12.6839 8.44129 12.1213 7.87868Z" fill="#2376EA"/>
</svg>
