<svg width="120" height="120" viewBox="0 0 120 120" fill="none" xmlns="http://www.w3.org/2000/svg">
<path fill-rule="evenodd" clip-rule="evenodd" d="M60 120C93.1371 120 120 93.1371 120 60C120 26.8629 93.1371 0 60 0C26.8629 0 0 26.8629 0 60C0 93.1371 26.8629 120 60 120ZM47.8998 86.1658C48.474 86.7401 49.2278 87.0285 49.9816 87.0285C50.7354 87.0285 51.4897 86.7401 52.064 86.1658L88.1366 50.0933C89.2877 48.9416 89.2877 47.0808 88.1366 45.9291C86.9848 44.7779 85.1241 44.7779 83.9729 45.9291L49.9816 79.9198L34.0274 63.9656C32.8757 62.8145 31.015 62.8145 29.8638 63.9656C28.7121 65.1168 28.7121 66.9781 29.8638 68.1293L47.8998 86.1658Z" fill="url(#paint0_linear)"/>
<defs>
<linearGradient id="paint0_linear" x1="23" y1="10" x2="60" y2="120" gradientUnits="userSpaceOnUse">
<stop stop-color="#40C364"/>
<stop offset="1" stop-color="#A5DF63"/>
</linearGradient>
</defs>
</svg>
