<svg width="23" height="20" viewBox="0 0 23 20" fill="none" xmlns="http://www.w3.org/2000/svg">
<path fill-rule="evenodd" clip-rule="evenodd" d="M5.17157 1.17157C5.92172 0.421427 6.93913 0 8 0C9.06087 0 10.0783 0.421427 10.8284 1.17157C11.5786 1.92172 12 2.93913 12 4C12 5.06087 11.5786 6.07828 10.8284 6.82843C10.0783 7.57857 9.06087 8 8 8C6.93913 8 5.92172 7.57857 5.17157 6.82843C4.42143 6.07828 4 5.06087 4 4C4 2.93913 4.42143 1.92172 5.17157 1.17157ZM0 14C0 11.33 5.33 10 8 10C9.18 10 10.88 10.28 12.41 10.8C11.5 12 11 13.5 11 15C11 15.34 11.03 15.67 11.08 16H0V14ZM16.74 10.21C16.76 10.09 16.87 10 17 10H19C19.11 10 19.22 10.09 19.23 10.21L19.42 11.53C19.73 11.65 20 11.82 20.27 12L21.5 11.5C21.63 11.5 21.76 11.5 21.82 11.63L22.82 13.36C22.88 13.47 22.85 13.6 22.76 13.68L21.7 14.5C21.73 14.67 21.74 14.83 21.74 15C21.74 15.161 21.7221 15.3131 21.7032 15.4732L21.7 15.5L22.77 16.32C22.86 16.4 22.89 16.53 22.83 16.64L21.83 18.37C21.76 18.5 21.63 18.5 21.5 18.5L20.27 18C20 18.18 19.73 18.34 19.43 18.47L19.24 19.79C19.22 19.91 19.11 20 19 20H17C16.86 20 16.76 19.91 16.74 19.79L16.55 18.47C16.24 18.35 15.96 18.18 15.7 18L14.46 18.5C14.34 18.5 14.21 18.5 14.15 18.37L13.15 16.64C13.09 16.53 13.12 16.4 13.21 16.32L14.27 15.5C14.25 15.33 14.24 15.17 14.24 15C14.24 14.83 14.25 14.67 14.27 14.5L13.21 13.68C13.11 13.6 13.09 13.47 13.15 13.36L14.15 11.63C14.22 11.5 14.35 11.5 14.46 11.5L15.7 12C15.96 11.82 16.25 11.66 16.55 11.53L16.74 10.21ZM19.0607 13.9393C18.7794 13.658 18.3978 13.5 18 13.5C17.6022 13.5 17.2206 13.658 16.9393 13.9393C16.658 14.2206 16.5 14.6022 16.5 15C16.5 15.83 17.16 16.5 18 16.5C18.3978 16.5 18.7794 16.342 19.0607 16.0607C19.342 15.7794 19.5 15.3978 19.5 15C19.5 14.6022 19.342 14.2206 19.0607 13.9393Z" fill="#1F2937"/>
</svg>
